<svg xmlns="http://www.w3.org/2000/svg" data-name="Layer 1" viewBox="0 0 512 512"><path d="M367.279 299.026a27.975 27.975 0 0 0-27.833.1l-.143.08-10.945 5.952a42.884 42.884 0 0 1 14.827 6.852Z"/><circle cx="106.918" cy="439.648" r="6"/><path d="m361.02 330.972 48.609-26.224c-5.367-4.867-13.477-7.4-19.956-4.157l-37.444 20.174a43 43 0 0 1 6.336 11.5zM53.41 310l18.536 152h76.585L102.19 310zm71.508 129.648a18 18 0 1 1-18-18 18.02 18.02 0 0 1 18 18z"/><path d="m428.237 308.344-61.57 33.216-5.592 2.949c.046.811.074 1.627.074 2.45a6 6 0 0 1-6 6c-.091 0-.181 0-.272-.006l-42.5-1.923a204.664 204.664 0 0 0-37.193 1.718 6 6 0 0 1-1.646-11.887 216.705 216.705 0 0 1 39.381-1.819l35.589 1.655A31.06 31.06 0 0 0 318.1 316h-49.83a65.657 65.657 0 0 1-28.4-6.553l-5.137-2.507a76.612 76.612 0 0 0-79.545 7.631l-12.218 10.872a54.644 54.644 0 0 1-20.164 11.372l24.2 79.382 33.908-21.437c.09-.057.183-.113.277-.165a33.713 33.713 0 0 1 24.572-3.334l74.709 13.757a85.28 85.28 0 0 0 52.3-7.258l124-85.138a23.99 23.99 0 0 0-28.535-4.278zM256 49.657a84 84 0 1 0 84 84 84.1 84.1 0 0 0-84-84zM276.555 104H291a6 6 0 0 1 0 12h-14.445a36.076 36.076 0 0 1-35.525 30h-4.945l39.1 36.965a6.006 6.006 0 0 1-8.242 8.739L216.879 144.4A6.024 6.024 0 0 1 221 134h20.03a24.457 24.457 0 0 0 23.276-18H221a6 6 0 0 1 0-12h43.306a24.457 24.457 0 0 0-23.276-18H221a6 6 0 0 1 0-12h70a6 6 0 0 1 0 12h-23.151a35.4 35.4 0 0 1 8.706 18z"/></svg>