<svg xmlns="http://www.w3.org/2000/svg" viewBox="0 0 48 48"><defs><style>.cls-1{fill:#201602;}</style></defs><title>Asset 35ldpi</title><g id="Layer_2" data-name="Layer 2"><g id="layer_1-2" data-name="layer 1"><path class="cls-1" d="M10,12C7.24,12,5,9.31,5,6s2.24-6,5-6,5,2.69,5,6S12.76,12,10,12ZM10,2C8.35,2,7,3.79,7,6s1.35,4,3,4,3-1.79,3-4S11.65,2,10,2Z"/><rect class="cls-1" x="2" y="46" width="16" height="2"/><rect class="cls-1" x="4" y="16" width="2" height="31"/><rect class="cls-1" x="9" y="31" width="2" height="16"/><path class="cls-1" d="M16,47H14V15a1,1,0,0,1,1-1H28a1,1,0,0,0,0-2H10.06l-5.39.6a3,3,0,0,0-2.67,3V27a1,1,0,0,0,1,1H4V16H6V29a1,1,0,0,1-1,1H3a3,3,0,0,1-3-3V15.58a5,5,0,0,1,4.45-5L9.89,10H28a3,3,0,0,1,0,6H16Z"/><rect class="cls-1" x="5" y="26" width="10" height="2"/><path class="cls-1" d="M47,40H21a1,1,0,0,1-1-1V17h2V38H46V2H22V9H20V1a1,1,0,0,1,1-1H47a1,1,0,0,1,1,1V39A1,1,0,0,1,47,40Z"/><path class="cls-1" d="M34,35a9,9,0,1,1,9-9A9,9,0,0,1,34,35Zm0-16a7,7,0,1,0,7,7A7,7,0,0,0,34,19Z"/><path class="cls-1" d="M42,27H34a1,1,0,0,1-1-1V18h2v7h7Z"/><rect class="cls-1" x="27.59" y="28" width="7.81" height="2" transform="translate(-10.94 34.63) rotate(-50.19)"/><rect class="cls-1" x="33" y="39" width="2" height="7"/><rect class="cls-1" x="41" y="38.53" width="2" height="8.94" transform="translate(-14.8 23.32) rotate(-26.57)"/><rect class="cls-1" x="21.53" y="42" width="8.94" height="2" transform="translate(-24.09 47.02) rotate(-63.43)"/><rect class="cls-1" x="38" y="5" width="5" height="2"/><rect class="cls-1" x="25" y="5" width="11" height="2"/><rect class="cls-1" x="33" y="10" width="10" height="2"/></g></g></svg>