<svg xmlns="http://www.w3.org/2000/svg" data-name="Layer 1" viewBox="0 0 512 512"><path fill="#f8ec7d" d="M486.92 417.63h7.16a8 8 0 0 1 8 8v59.79a8 8 0 0 1-8 8h-69.79a8 8 0 0 1-8-8v-59.79a8 8 0 0 1 8-8h62.63Z"/><path fill="#6fe3ff" d="M486.92 401.11v16.52h-55.47v-16.52a27.728 27.728 0 0 1 44.33-22.22 26.793 26.793 0 0 1 3.02 2.61 27.637 27.637 0 0 1 8.12 19.61Z"/><path fill="#e48e66" d="M254.75 136.2a34.845 34.845 0 1 0-34.84 34.84 34.842 34.842 0 0 0 34.84-34.84Zm175.17 24.32v34.68h-420v-34.68l210-91.28Z"/><path fill="#6fe3ff" d="M403.66 213.27a17.939 17.939 0 1 1-35.87.51h-30.33a17.938 17.938 0 1 1-17.94-17.94h65.84a18.179 18.179 0 0 1 18.3 17.43zm-32.94 71.58a106.99 106.99 0 0 1 18.84-1.66c49.76 0 90.09 36.54 90.09 81.61a75.009 75.009 0 0 1-1.31 13.97l-2.56.12a27.728 27.728 0 0 0-44.33 22.22v16.52h-7.16a8 8 0 0 0-8 8v33.69h-9.25a9.97 9.97 0 0 1-9.98-9.98 9.982 9.982 0 0 0-9.98-9.98h-25.91a9.97 9.97 0 0 0-9.98 9.98 9.974 9.974 0 0 1-9.97 9.98h-13.89a9.97 9.97 0 0 1-9.97-9.98q0-2.115-.15-4.23a58.983 58.983 0 0 0-8.41-26.48 57.355 57.355 0 0 0-6.45-8.65 73.719 73.719 0 0 1-11.34-16.46c-.24-.47-.47-.94-.69-1.42h-13.57a6.767 6.767 0 0 1-6.77-6.76v-42.97a6.769 6.769 0 0 1 6.77-6.77h13.11l5.03-7.95a88.62 88.62 0 0 1 44.01-35.68h.01a58.789 58.789 0 0 0-2.2-23.88l-.99-3.25c.56 0 1.11.02 1.67.04h.07a40.438 40.438 0 0 1 28.81 13.83 41.083 41.083 0 0 1 4.45 6.14z"/><path fill="#f8ec7d" d="M366.27 213.78v64.93a40.438 40.438 0 0 0-28.81-13.83h-.07l.07-2.1v-49Z"/><path fill="#e48e66" d="M312.2 425.11H21.59v-31.59h269.42a73.719 73.719 0 0 0 11.34 16.46 57.355 57.355 0 0 1 6.45 8.65 58.749 58.749 0 0 1 3.4 6.48Z"/><path fill="#6fe3ff" d="M270.95 213.27a17.939 17.939 0 1 1-35.87.51h-30.33a17.938 17.938 0 1 1-17.94-17.94h65.84a18.172 18.172 0 0 1 18.3 17.43Z"/><path fill="#f8ec7d" d="M263.45 18.58 252.7 34.82l10.75 14.13-43.53.38V18.58h43.53z"/><path fill="#6fe3ff" d="M251.5 381.56v11.96h-64.69v-11.96l5.98-11.96h52.73l5.98 11.96z"/><path fill="#f8ec7d" d="M219.91 101.36a34.84 34.84 0 1 1-34.85 34.84 34.842 34.842 0 0 1 34.85-34.84Zm3.57 35.8a3.575 3.575 0 1 0-3.57 3.57 3.572 3.572 0 0 0 3.57-3.57ZM204.75 213.78h28.81V369.6h-28.81z"/><path fill="#6fe3ff" d="M138.24 213.27a17.934 17.934 0 1 1-35.86.51H72.04a17.938 17.938 0 1 1-17.93-17.94h65.83a18.165 18.165 0 0 1 18.3 17.43ZM118.79 381.56v11.96H54.11v-11.96l5.98-11.96h52.72l5.98 11.96z"/><path fill="#f8ec7d" d="M72.04 213.78h28.82V369.6H72.04z"/><path fill="#63316d" d="M344.69 325.2a6 6 0 0 0-6 6 5.505 5.505 0 0 1-11.01 0 6 6 0 0 0-12 0 17.505 17.505 0 0 0 35.01 0 6 6 0 0 0-6-6Z"/><path fill="#63316d" d="M494.08 412H493v-10.89a33.517 33.517 0 0 0-8.535-22.377 81.163 81.163 0 0 0 1.205-13.933c0-.215-.017-.428-.019-.642a25.618 25.618 0 0 0 20.334-25.038 6 6 0 0 0-12 0 13.6 13.6 0 0 1-9.356 12.9c-6.807-42.272-46.842-74.829-95.065-74.829a117.767 117.767 0 0 0-16.1 1.12c-.431-.6-.465-1.19-1.465-1.765v-42.99a24.616 24.616 0 0 0 13.6 4.165A24 24 0 0 0 409.624 213a25.279 25.279 0 0 0-3.637-12h23.933a5.9 5.9 0 0 0 6.08-5.8v-34.68a6 6 0 0 0-3.608-5.5L226 65.306V55.278l37.542-.328a5.994 5.994 0 0 0 4.694-9.633l-8.175-10.738 8.4-12.687a5.627 5.627 0 0 0 .281-5.942A5.815 5.815 0 0 0 263.45 13h-43.53a5.588 5.588 0 0 0-5.92 5.58v46.726L7.608 155.018A6 6 0 0 0 4 160.52v34.68a5.764 5.764 0 0 0 5.92 5.8h23.81A24.014 24.014 0 0 0 66 234.535V364h-5.91a5.823 5.823 0 0 0-5.367 3.117l-6.035 11.86A5.652 5.652 0 0 0 48 381.56V388H21.59a5.268 5.268 0 0 0-5.59 5.52v31.59a5.57 5.57 0 0 0 5.59 5.89h286.558a56.476 56.476 0 0 1 3.077 14.48 55.03 55.03 0 0 1 .135 3.832A15.722 15.722 0 0 0 327.33 465h13.89a15.857 15.857 0 0 0 15.97-15.82 4.21 4.21 0 0 1 1.15-2.905 4.094 4.094 0 0 1 2.83-1.275h25.91a4.143 4.143 0 0 1 3.98 4.16A15.851 15.851 0 0 0 407.04 465H410v20.42c0 7.72 6.57 13.58 14.29 13.58h69.79A13.594 13.594 0 0 0 508 485.42v-59.79A13.635 13.635 0 0 0 494.08 412ZM437 412v-10.89a21.982 21.982 0 0 1 35.1-17.393 21.18 21.18 0 0 1 8.9 17.393V412Zm-94-192h17v45.857a46.644 46.644 0 0 0-17-6.352Zm51.286 2.107a11.94 11.94 0 0 1-20.5-8.217 5.907 5.907 0 0 0-6-5.89H337.46a5.907 5.907 0 0 0-6 5.89 11.7 11.7 0 0 1-3.768 8.646 11.832 11.832 0 0 1-8.943 3.183 12.086 12.086 0 0 1-11.141-11.159A11.818 11.818 0 0 1 319.52 202h65.84a12.143 12.143 0 0 1 12.3 11.516 11.689 11.689 0 0 1-3.374 8.591Zm-98.654-6.907a23.772 23.772 0 0 0 22.144 22.423A22.918 22.918 0 0 0 331 234.532v26.092a1.271 1.271 0 0 1-.331.644 5.968 5.968 0 0 0-.8 5.32l1.051 3.259a52.472 52.472 0 0 1 2.289 17.913 95.651 95.651 0 0 0-43.4 36.882L286.556 330h-9.806A12.431 12.431 0 0 0 264 342.37v42.97a22.18 22.18 0 0 0 .181 2.66H257v-6.44a5.829 5.829 0 0 0-.383-2.683l-5.855-11.76A5.638 5.638 0 0 0 245.52 364H240V233.555c3 2.622 8.25 4.165 13.24 4.165a23.5 23.5 0 0 0 17.048-7.245A23.95 23.95 0 0 0 277 213.01c-.115-4.35-1.5-8.01-3.719-12.01h25.862a23.733 23.733 0 0 0-3.511 14.2Zm-117.513-9.514A11.74 11.74 0 0 1 186.81 202h65.84a12.133 12.133 0 0 1 12.3 11.516 11.938 11.938 0 1 1-23.873.384 5.915 5.915 0 0 0-6-5.9H204.75a5.907 5.907 0 0 0-6 5.89 11.707 11.707 0 0 1-3.766 8.648 11.845 11.845 0 0 1-8.945 3.181 12.045 12.045 0 0 1-11.14-11.113 11.81 11.81 0 0 1 3.22-8.925ZM211 220h17v144h-17Zm30.812 156 3.188 6.977V388h-52v-5.023l3.5-6.977ZM226 25h26.283l-4.583 6.718a5.838 5.838 0 0 0 .228 6.84l3.541 4.549-25.469.17ZM16 164.454l204-88.671 204 88.671V189H16ZM166.439 201a23.771 23.771 0 0 0-3.517 14.195A24.216 24.216 0 0 0 199 234.535V364h-6.21a5.824 5.824 0 0 0-5.367 3.117l-5.885 11.86a5.509 5.509 0 0 0-.538 2.583V388h-56v-6.44a6.12 6.12 0 0 0-.738-2.683l-6.033-11.76A5.9 5.9 0 0 0 112.81 364H107V233.558a23.942 23.942 0 0 0 13.38 4.162 23.672 23.672 0 0 0 17.123-7.245 23.988 23.988 0 0 0 6.753-17.465c-.116-4.35-1.466-8.01-3.682-12.01ZM62.274 222.483a11.858 11.858 0 0 1-8.945 3.208 12.07 12.07 0 0 1-11.14-11.139A11.815 11.815 0 0 1 54.11 202h65.83a12.133 12.133 0 0 1 12.3 11.516 11.933 11.933 0 1 1-23.863.384 5.916 5.916 0 0 0-6-5.9H72.04a5.907 5.907 0 0 0-6 5.89 11.587 11.587 0 0 1-3.766 8.593ZM78 220h17v144H78ZM60 382.977 63.8 376h45.3l3.9 6.977V388H60ZM28 400h259.416a81.934 81.934 0 0 0 10.484 14.187 31.734 31.734 0 0 1 4.041 4.813H28Zm379.04 53a3.837 3.837 0 0 1-2.805-.99 4.226 4.226 0 0 1-1.175-2.93A16.083 16.083 0 0 0 387.08 433h-25.91a16.119 16.119 0 0 0-11.315 4.869 15.758 15.758 0 0 0-4.665 11.221 3.92 3.92 0 0 1-3.97 3.91h-13.89a3.707 3.707 0 0 1-3.97-3.74c0-1.547-.056-3.073-.165-4.612a64.8 64.8 0 0 0-9.268-29.144 63.372 63.372 0 0 0-7.126-9.552 67.91 67.91 0 0 1-10.446-15.16c-.2-.4-.4-.841-.582-1.245A6.044 6.044 0 0 0 290.32 386h-13.57a.67.67 0 0 1-.75-.66v-42.97c0-.425.325-.37.75-.37h13.11a6.2 6.2 0 0 0 5.07-2.992l5.029-8.048a83.214 83.214 0 0 1 40.827-33.239 6.037 6.037 0 0 0 4.086-5.046 64.455 64.455 0 0 0-1-20.867 34.209 34.209 0 0 1 17.895 10.868 35.025 35.025 0 0 1 3.789 5.224 34.58 34.58 0 0 1 4.769 17.552 6 6 0 0 0 12 0 46.7 46.7 0 0 0-2.757-15.77c3.288-.318 6.682-.491 10-.491 46.367 0 84.09 33.918 84.09 75.61 0 1.909-.093 3.821-.251 5.726a34.449 34.449 0 0 0-14.434-3.156A33.972 33.972 0 0 0 425 401.11V412h-.71c-7.72 0-14.29 5.91-14.29 13.63V453ZM496 486a2 2 0 0 1-2 2h-70a2 2 0 0 1-2-2v-60a2 2 0 0 1 2-2h70a2 2 0 0 1 2 2Z"/><path fill="#63316d" d="M219.91 127.59a9.57 9.57 0 1 0 9.57 9.57 9.586 9.586 0 0 0-9.57-9.57Zm0 12a2.43 2.43 0 1 1 2.42-2.43 2.433 2.433 0 0 1-2.42 2.43Z"/><path fill="#63316d" d="M269.85 130h-9.544c-2.911-19-19.915-34.84-40.4-34.84S182.417 111 179.505 130h-9.475a6 6 0 1 0 0 12h9.475a40.844 40.844 0 0 0 80.8 0h9.544a6 6 0 0 0 0-12zm-49.94 35.04a28.84 28.84 0 1 1 28.84-28.84 28.877 28.877 0 0 1-28.84 28.84zM474.1 441a5.206 5.206 0 0 0 5-5.179 5.1 5.1 0 0 0-4.946-5.17l-19.931-.39-7.99-.261h-.054a5.089 5.089 0 0 0-.053 10.176l7.989.115a6.87 6.87 0 0 1 4.838 1.939L446.1 442h-.055a5.081 5.081 0 0 0-.053 10.16l12.849.025a6.856 6.856 0 0 1-4.8 1.815h-.077l-7.99.054a5.142 5.142 0 0 0-4.68 3.172 5.054 5.054 0 0 0 1.154 5.529l19.766 19.1a4.995 4.995 0 1 0 6.946-7.179l-11.237-10.847a16.726 16.726 0 0 0 12.277-11.113l3.719.284h.055a5.213 5.213 0 0 0 5-5.189 5.107 5.107 0 0 0-4.946-5.176l-3.705-.1a13.844 13.844 0 0 0-.744-1.785l4.47.25z"/></svg>